<svg width="20" height="20" viewBox="0 0 20 20" fill="none" xmlns="http://www.w3.org/2000/svg">
<path fill-rule="evenodd" clip-rule="evenodd" d="M10.0002 0.832031C4.93755 0.832031 0.833496 4.93609 0.833496 9.9987C0.833496 15.0613 4.93755 19.1654 10.0002 19.1654C15.0628 19.1654 19.1668 15.0613 19.1668 9.9987C19.1668 4.93609 15.0628 0.832031 10.0002 0.832031ZM10.8335 6.66536C10.8335 6.20513 10.4604 5.83203 10.0002 5.83203C9.53992 5.83203 9.16683 6.20513 9.16683 6.66536V9.9987C9.16683 10.4589 9.53992 10.832 10.0002 10.832C10.4604 10.832 10.8335 10.4589 10.8335 9.9987V6.66536ZM10.0002 12.4987C9.53992 12.4987 9.16683 12.8718 9.16683 13.332C9.16683 13.7923 9.53992 14.1654 10.0002 14.1654H10.0085C10.4687 14.1654 10.8418 13.7923 10.8418 13.332C10.8418 12.8718 10.4687 12.4987 10.0085 12.4987H10.0002Z" fill="#F79009"/>
</svg>
