<svg width="20" height="20" viewBox="0 0 20 20" fill="none" xmlns="http://www.w3.org/2000/svg">
<mask id="path-1-inside-1_14710_5119" fill="white">
<path d="M16.371 17.2092C16.616 17.5101 16.572 17.9549 16.2547 18.1783C14.7204 19.2579 12.9088 19.887 11.0259 19.9862C8.90847 20.0977 6.81039 19.5332 5.03471 18.3744C3.25902 17.2156 1.89765 15.5223 1.14722 13.5391C0.39679 11.556 0.296149 9.38566 0.859833 7.34158C1.42352 5.29751 2.62235 3.48551 4.28317 2.16731C5.94399 0.849111 7.98083 0.0929425 10.0995 0.00802297C12.2182 -0.0768966 14.309 0.513828 16.07 1.69488C17.636 2.74512 18.869 4.21381 19.6331 5.92727C19.7911 6.28169 19.6009 6.6862 19.2362 6.81897C18.8716 6.95174 18.471 6.76225 18.3089 6.40967C17.6495 4.97555 16.6057 3.74621 15.2873 2.86199C13.7737 1.84692 11.9767 1.33921 10.1558 1.41219C8.33485 1.48518 6.58425 2.13508 5.15682 3.26804C3.72939 4.40099 2.69903 5.95835 2.21456 7.71517C1.73009 9.47199 1.81659 11.3373 2.46156 13.0418C3.10654 14.7462 4.27659 16.2016 5.80274 17.1975C7.32889 18.1935 9.13213 18.6786 10.952 18.5828C12.5373 18.4993 14.0637 17.9788 15.3649 17.0853C15.6848 16.8657 16.1259 16.9083 16.371 17.2092Z"/>
</mask>
<path d="M16.371 17.2092C16.616 17.5101 16.572 17.9549 16.2547 18.1783C14.7204 19.2579 12.9088 19.887 11.0259 19.9862C8.90847 20.0977 6.81039 19.5332 5.03471 18.3744C3.25902 17.2156 1.89765 15.5223 1.14722 13.5391C0.39679 11.556 0.296149 9.38566 0.859833 7.34158C1.42352 5.29751 2.62235 3.48551 4.28317 2.16731C5.94399 0.849111 7.98083 0.0929425 10.0995 0.00802297C12.2182 -0.0768966 14.309 0.513828 16.07 1.69488C17.636 2.74512 18.869 4.21381 19.6331 5.92727C19.7911 6.28169 19.6009 6.6862 19.2362 6.81897C18.8716 6.95174 18.471 6.76225 18.3089 6.40967C17.6495 4.97555 16.6057 3.74621 15.2873 2.86199C13.7737 1.84692 11.9767 1.33921 10.1558 1.41219C8.33485 1.48518 6.58425 2.13508 5.15682 3.26804C3.72939 4.40099 2.69903 5.95835 2.21456 7.71517C1.73009 9.47199 1.81659 11.3373 2.46156 13.0418C3.10654 14.7462 4.27659 16.2016 5.80274 17.1975C7.32889 18.1935 9.13213 18.6786 10.952 18.5828C12.5373 18.4993 14.0637 17.9788 15.3649 17.0853C15.6848 16.8657 16.1259 16.9083 16.371 17.2092Z" stroke="#1A1A1A" strokeWidth="2" mask="url(#path-1-inside-1_14710_5119)"/>
</svg>
