<svg width="16" height="16" viewBox="0 0 16 16" fill="none" xmlns="http://www.w3.org/2000/svg">
<path d="M5.3335 5.33398V3.46732C5.3335 2.72058 5.3335 2.34721 5.47882 2.062C5.60665 1.81111 5.81063 1.60714 6.06151 1.47931C6.34672 1.33398 6.72009 1.33398 7.46683 1.33398H12.5335C13.2802 1.33398 13.6536 1.33398 13.9388 1.47931C14.1897 1.60714 14.3937 1.81111 14.5215 2.062C14.6668 2.34721 14.6668 2.72058 14.6668 3.46732V8.53398C14.6668 9.28072 14.6668 9.65409 14.5215 9.93931C14.3937 10.1902 14.1897 10.3942 13.9388 10.522C13.6536 10.6673 13.2802 10.6673 12.5335 10.6673H10.6668M3.46683 14.6673H8.5335C9.28023 14.6673 9.6536 14.6673 9.93882 14.522C10.1897 14.3942 10.3937 14.1902 10.5215 13.9393C10.6668 13.6541 10.6668 13.2807 10.6668 12.534V7.46732C10.6668 6.72058 10.6668 6.34721 10.5215 6.062C10.3937 5.81111 10.1897 5.60714 9.93882 5.47931C9.6536 5.33398 9.28023 5.33398 8.5335 5.33398H3.46683C2.72009 5.33398 2.34672 5.33398 2.06151 5.47931C1.81063 5.60714 1.60665 5.81111 1.47882 6.062C1.3335 6.34721 1.3335 6.72058 1.3335 7.46732V12.534C1.3335 13.2807 1.3335 13.6541 1.47882 13.9393C1.60665 14.1902 1.81063 14.3942 2.06151 14.522C2.34672 14.6673 2.72009 14.6673 3.46683 14.6673Z" stroke="#4B5563" stroke-width="2" stroke-linecap="round" stroke-linejoin="round"/>
</svg>
