<svg width="20" height="20" viewBox="0 0 20 20" fill="none" xmlns="http://www.w3.org/2000/svg">
<g clip-path="url(#clip0_20328_26243)">
<path d="M0 10C0 4.47717 4.47717 0 10 0C15.5228 0 20 4.47717 20 10C20 15.5228 15.5228 20 10 20C4.47717 20 0 15.5228 0 10Z" fill="#00B900"/>
<path d="M10.1666 4.66602C6.76662 4.66602 4 6.89472 4 9.63422C4 12.0902 6.19383 14.147 9.15729 14.5359C9.35812 14.5788 9.63145 14.6673 9.70058 14.8378C9.76279 14.9926 9.74125 15.2351 9.72045 15.3913C9.72045 15.3913 9.64812 15.8234 9.6325 15.9154C9.60566 16.0702 9.50862 16.5208 10.1666 16.2454C10.8248 15.9701 13.718 14.1694 15.0118 12.6909C15.9053 11.718 16.3333 10.7306 16.3333 9.63422C16.3333 6.89472 13.5671 4.66602 10.1666 4.66602Z" fill="white"/>
<path d="M8.45262 8.33398C8.38691 8.33398 8.3335 8.38911 8.3335 8.45686V11.2111C8.3335 11.279 8.38691 11.334 8.45262 11.334H8.88116C8.94687 11.334 9.00016 11.279 9.00016 11.2111V8.45686C9.00016 8.38911 8.94687 8.33398 8.88116 8.33398H8.45262Z" fill="#00B900"/>
<path d="M11.8749 8.33398H11.4237C11.3546 8.33398 11.2985 8.38911 11.2985 8.45686V10.0932L10.0142 8.38865C10.0112 8.38428 10.0079 8.38015 10.0045 8.37615L10.0036 8.37544C10.0012 8.37265 9.99866 8.37023 9.99608 8.36778C9.99537 8.36707 9.99462 8.36644 9.99375 8.36573C9.99166 8.36378 9.98941 8.36198 9.98708 8.36028C9.98612 8.35932 9.985 8.35857 9.98387 8.35773C9.98166 8.35628 9.97958 8.35469 9.97737 8.35336C9.97612 8.35253 9.97487 8.35178 9.97354 8.35119C9.97133 8.34986 9.96908 8.34853 9.96687 8.34744C9.9655 8.34682 9.96429 8.34611 9.96291 8.34561C9.96058 8.34453 9.95825 8.34344 9.95579 8.34257C9.95429 8.34211 9.95308 8.34161 9.9517 8.34115C9.94925 8.34028 9.94679 8.33944 9.94416 8.33882C9.94283 8.33836 9.94133 8.33811 9.93987 8.33761C9.93741 8.33715 9.93508 8.33653 9.9327 8.33603C9.931 8.33582 9.92912 8.33557 9.92741 8.33544C9.9252 8.33494 9.923 8.33482 9.92075 8.33461C9.91866 8.33436 9.91658 8.33436 9.91433 8.33423C9.91275 8.33423 9.9115 8.33398 9.90991 8.33398H9.45887C9.3897 8.33398 9.3335 8.38911 9.3335 8.45686V11.2111C9.3335 11.279 9.3897 11.334 9.45887 11.334H9.90991C9.9792 11.334 10.0353 11.279 10.0353 11.2111V9.57528L11.3212 11.282C11.33 11.2944 11.341 11.3044 11.353 11.3124C11.3533 11.3127 11.3538 11.313 11.3542 11.3134C11.3568 11.3149 11.3594 11.3165 11.362 11.318C11.3632 11.3187 11.3643 11.3192 11.3655 11.3198C11.3674 11.3209 11.3695 11.3219 11.3715 11.3227C11.3736 11.3236 11.3754 11.3244 11.3776 11.3253C11.3789 11.3257 11.3801 11.3262 11.3813 11.3266C11.3843 11.3277 11.387 11.3285 11.3898 11.3294C11.3905 11.3294 11.3911 11.3296 11.3917 11.3297C11.4019 11.3324 11.4127 11.334 11.4237 11.334H11.8749C11.9442 11.334 12.0002 11.279 12.0002 11.2111V8.45686C12.0002 8.38911 11.9442 8.33398 11.8749 8.33398Z" fill="#00B900"/>
<path d="M7.87817 10.6443H6.68371V8.45711C6.68371 8.38911 6.62904 8.33398 6.56179 8.33398H6.12204C6.05467 8.33398 6 8.38911 6 8.45711V11.2108V11.211C6 11.2441 6.01308 11.274 6.03413 11.2961C6.03458 11.2967 6.03508 11.2973 6.03579 11.2979C6.03642 11.2985 6.037 11.299 6.03758 11.2996C6.05958 11.3209 6.08913 11.334 6.12196 11.334H7.87817C7.94558 11.334 8 11.2787 8 11.2108V10.7674C8 10.6994 7.94558 10.6443 7.87817 10.6443Z" fill="#00B900"/>
<path d="M14.2117 9.02369C14.2791 9.02369 14.3335 8.96865 14.3335 8.90057V8.45719C14.3335 8.38923 14.2791 8.33398 14.2117 8.33398H12.4556H12.4553C12.4224 8.33398 12.3927 8.34732 12.3707 8.36878C12.3702 8.36923 12.3697 8.36961 12.3693 8.37011C12.3686 8.37082 12.368 8.37153 12.3674 8.37228C12.3465 8.39432 12.3335 8.42415 12.3335 8.45711V8.45719V11.2109V11.211C12.3335 11.2441 12.3466 11.274 12.3676 11.2961C12.3681 11.2967 12.3687 11.2974 12.3693 11.2979C12.3698 11.2985 12.3705 11.2991 12.3711 11.2996C12.393 11.3208 12.4227 11.334 12.4553 11.334H14.2117C14.2791 11.334 14.3335 11.2787 14.3335 11.2109V10.7674C14.3335 10.6996 14.2791 10.6443 14.2117 10.6443H13.0173V10.1788H14.2117C14.2791 10.1788 14.3335 10.1237 14.3335 10.0557V9.61232C14.3335 9.54432 14.2791 9.48907 14.2117 9.48907H13.0173V9.02369H14.2117Z" fill="#00B900"/>
</g>
<defs>
<clipPath id="clip0_20328_26243">
<rect width="20" height="20" fill="white"/>
</clipPath>
</defs>
</svg>
