<svg width="215" height="36" viewBox="0 0 215 36" fill="none" xmlns="http://www.w3.org/2000/svg">
<g clip-path="url(#clip0_21628_54309)">
<mask id="mask0_21628_54309" style="mask-type:luminance" maskUnits="userSpaceOnUse" x="0" y="0" width="58" height="36">
<path d="M57.974 0H0V36H57.974V0Z" fill="white"/>
</mask>
<g mask="url(#mask0_21628_54309)">
<path d="M33.2763 2.99383C31.2646 1.14754 29.4662 -0.486508 26.5052 0.307082C23.4174 0.982187 20.6077 6.25998 16.557 11.3294C12.5428 16.2518 7.28767 20.9658 0.159557 17.1314C0.0889035 17.156 0.0175963 17.1808 -0.0537109 17.2048C0.648894 17.6912 1.3515 18.1202 2.05345 18.4972C5.28124 20.4333 6.56346 23.9136 8.32128 26.6453C10.0588 29.431 12.272 31.4673 16.8879 31.7688C18.288 31.8274 19.667 31.7792 21.0172 31.6034C23.3763 33.3917 26.0336 35.3768 29.179 35.9002C36.2874 37.3343 39.0907 30.8177 41.8814 24.7821C44.6972 18.8552 47.4323 12.6549 54.9451 16.8332C56.0088 17.501 57.0725 18.2888 58.1381 19.21C57.3944 18.4125 56.6538 17.675 55.9159 16.9953C52.5776 14.4498 50.038 12.5169 47.9772 10.7631C45.9166 9.0294 44.3353 7.47478 42.8993 6.15973C40.0261 3.50748 37.7358 1.93527 33.2768 2.99318L33.2763 2.99383Z" fill="white"/>
<path style="mix-blend-mode:multiply" d="M55.9154 16.996C52.5475 14.4317 49.993 12.4839 47.923 10.7177C45.8525 8.9723 44.2674 7.40921 42.8236 6.0922C39.934 3.43801 37.6182 1.88272 33.0394 3.05716C28.1277 4.31949 24.847 8.0713 20.4482 12.3303C18.2521 14.4187 15.7812 16.5892 12.7293 17.9804C9.67948 19.3326 6.04935 19.9043 1.57989 17.8939C1.03692 17.6959 0.491974 17.4668 -0.0549316 17.2051C4.31182 19.4843 8.12708 19.9888 11.5367 20.067C14.9412 20.1067 17.9406 19.7212 20.5437 19.332C18.4934 23.0017 18.5837 26.0543 23.3711 25.1058C27.6862 24.2621 31.9077 20.5721 37.1413 17.2083C39.7659 15.5684 42.6521 14.0437 46.0429 13.7664C49.4401 13.5411 53.3411 14.5633 58.1363 19.2109C57.3925 18.4134 56.652 17.6757 55.914 16.996H55.9154Z" fill="url(#paint0_linear_21628_54309)"/>
<path style="mix-blend-mode:multiply" d="M51.8619 14.4887C43.2998 11.41 38.8316 8.46151 35.6654 5.349C32.4709 2.42397 30.579 -0.66445 26.5059 0.307518C23.4182 0.982623 20.6084 6.26042 16.5576 11.3299C12.5428 16.2522 7.28766 20.9662 0.159556 17.1318C0.0889033 17.1564 0.0175963 17.1812 -0.0537109 17.2054C4.31304 19.4845 8.12829 19.989 11.538 20.0672C14.9425 20.1068 17.9418 19.7215 20.5449 19.3323C18.4946 23.002 18.5849 26.0546 23.3724 25.1061C27.6875 24.2624 31.909 20.5724 37.1425 17.2085C39.767 15.5687 42.6534 14.044 46.0442 13.7666C49.4414 13.5414 53.3424 14.5636 58.1376 19.2112C56.031 17.1636 53.939 15.6195 51.8619 14.4887Z" fill="url(#paint1_linear_21628_54309)"/>
<path style="mix-blend-mode:multiply" d="M53.8358 15.9749C50.7368 14.3356 47.9565 14.6148 45.1919 16.0875C42.4318 17.5393 39.6881 20.185 36.7737 22.7987C33.8638 25.4243 30.7833 28.0193 27.4665 29.6351C24.1549 31.2939 20.6079 31.9736 16.8881 31.7698C12.036 31.4852 9.8405 29.1918 8.05716 26.2147C6.24765 23.2865 4.84833 19.6739 0.993821 17.8895C0.644481 17.6752 0.29514 17.4481 -0.0541992 17.2059C4.31255 19.4852 8.1278 19.9896 11.5375 20.0678C14.942 20.1075 17.9413 19.722 20.5444 19.3328C18.4941 23.0025 18.5844 26.0552 23.3719 25.1066C27.687 24.2629 31.9085 20.5729 37.142 17.2091C39.7667 15.5692 42.6529 14.0446 46.0436 13.7672C49.4409 13.542 53.3419 14.5641 58.1371 19.2117C56.6991 17.9037 55.2651 16.8354 53.8345 15.9749H53.8358Z" fill="url(#paint2_linear_21628_54309)"/>
<path style="mix-blend-mode:multiply" d="M54.9451 16.8336C47.4323 12.6553 44.6972 18.8556 41.8834 24.8001C39.0913 30.8187 36.2882 37.3347 29.1796 35.9005C26.4347 35.3478 24.0757 33.8954 21.9547 32.3382C19.8305 30.7549 17.9444 29.0668 16.0834 27.4464C12.3001 24.2596 8.78119 21.116 2.33018 18.6434C1.53599 18.2325 0.741136 17.7553 -0.0537109 17.2059C4.31304 19.4852 8.12829 19.9896 11.538 20.0678C14.9425 20.1075 17.9418 19.7221 20.5449 19.3328C18.4946 23.0025 18.5849 26.0552 23.3724 25.1067C27.6875 24.263 31.909 20.573 37.1425 17.2091C39.767 15.5692 42.6534 14.0446 46.0442 13.7672C49.4414 13.542 53.3424 14.5641 58.1376 19.2117C57.0725 18.2906 56.0081 17.5027 54.9444 16.8349L54.9451 16.8336Z" fill="url(#paint3_linear_21628_54309)"/>
</g>
<path d="M78.0836 12.0159H70.1403V16.2903H77.4543C77.9926 16.2903 78.3923 16.413 78.6536 16.6584C78.9227 16.8959 79.0572 17.2125 79.0572 17.6082C79.0572 18.0039 78.9266 18.3285 78.6654 18.5818C78.4042 18.8272 78.0005 18.9499 77.4543 18.9499H70.1403V23.9012H78.3566C78.9107 23.9012 79.3263 24.0318 79.6034 24.293C79.8884 24.5463 80.0308 24.8866 80.0308 25.3141C80.0308 25.7256 79.8884 26.062 79.6034 26.3232C79.3263 26.5765 78.9107 26.7033 78.3566 26.7033H68.7749C68.0071 26.7033 67.453 26.5331 67.1127 26.1926C66.7802 25.8522 66.614 25.3021 66.614 24.5423V11.4578C66.614 10.9512 66.6892 10.5396 66.8395 10.223C66.99 9.89846 67.2234 9.66495 67.5401 9.52248C67.8647 9.37209 68.2762 9.29688 68.7749 9.29688H78.0836C78.6456 9.29688 79.0612 9.42354 79.3304 9.67683C79.6074 9.92221 79.7459 10.2468 79.7459 10.6504C79.7459 11.0621 79.6074 11.3945 79.3304 11.6478C79.0612 11.8932 78.6456 12.0159 78.0836 12.0159Z" fill="url(#paint4_linear_21628_54309)"/>
<path d="M94.2315 22.9869C94.2315 23.3905 94.1088 23.822 93.8634 24.281C93.626 24.7401 93.2579 25.1795 92.7593 25.5989C92.2685 26.0106 91.6471 26.3431 90.8952 26.5964C90.1432 26.8497 89.2962 26.9763 88.3543 26.9763C86.3515 26.9763 84.7883 26.3945 83.6642 25.2309C82.5403 24.0594 81.9783 22.4921 81.9783 20.5291C81.9783 19.1993 82.2354 18.0238 82.75 17.0027C83.2645 15.9816 84.0087 15.1939 84.9822 14.64C85.9558 14.0779 87.1194 13.7969 88.473 13.7969C89.312 13.7969 90.0798 13.9196 90.7764 14.165C91.4808 14.4103 92.0745 14.7269 92.5574 15.1149C93.0481 15.5027 93.4202 15.9182 93.6735 16.3615C93.9347 16.7969 94.0653 17.2046 94.0653 17.5845C94.0653 17.9724 93.9189 18.3009 93.626 18.57C93.341 18.8391 92.9928 18.9736 92.5811 18.9736C92.312 18.9736 92.0865 18.9064 91.9043 18.7717C91.7302 18.6293 91.5324 18.4037 91.3108 18.0951C90.9149 17.4935 90.4993 17.0423 90.064 16.7415C89.6366 16.4407 89.0904 16.2903 88.4254 16.2903C87.4677 16.2903 86.696 16.6663 86.1102 17.4183C85.5244 18.1623 85.2315 19.1834 85.2315 20.4816C85.2315 21.091 85.3067 21.653 85.4572 22.1676C85.6075 22.6741 85.8252 23.1096 86.1102 23.4736C86.3952 23.8299 86.7395 24.1029 87.1431 24.293C87.5469 24.475 87.9901 24.566 88.473 24.566C89.1221 24.566 89.6761 24.4157 90.1353 24.1149C90.6023 23.814 91.0138 23.355 91.3701 22.7375C91.5679 22.3733 91.7816 22.0885 92.0112 21.8826C92.2409 21.6768 92.5218 21.574 92.8543 21.574C93.25 21.574 93.5785 21.7243 93.8397 22.0251C94.1009 22.326 94.2315 22.6465 94.2315 22.9869Z" fill="url(#paint5_linear_21628_54309)"/>
<path d="M99.6218 10.971V15.7797C100.033 15.3048 100.433 14.9288 100.821 14.6517C101.217 14.3747 101.652 14.1689 102.127 14.0343C102.602 13.8918 103.113 13.8206 103.659 13.8206C104.482 13.8206 105.21 13.9947 105.843 14.343C106.485 14.6913 106.987 15.1979 107.351 15.8628C107.581 16.2507 107.735 16.686 107.814 17.1688C107.894 17.6437 107.933 18.194 107.933 18.8192V25.0291C107.933 25.6781 107.783 26.1688 107.482 26.5013C107.189 26.8338 106.797 27 106.307 27C105.238 27 104.704 26.3431 104.704 25.0291V19.5553C104.704 18.5184 104.549 17.7229 104.241 17.1688C103.932 16.6068 103.346 16.3259 102.483 16.3259C101.906 16.3259 101.383 16.492 100.916 16.8245C100.457 17.1491 100.113 17.5964 99.883 18.1662C99.7089 18.649 99.6218 19.508 99.6218 20.7428V25.0291C99.6218 25.6702 99.4754 26.1609 99.1825 26.5013C98.8976 26.8338 98.4979 27 97.9834 27C96.9147 27 96.3804 26.3431 96.3804 25.0291V10.971C96.3804 10.314 96.5189 9.82322 96.796 9.49869C97.0809 9.16623 97.4768 9 97.9834 9C98.4979 9 98.8976 9.16623 99.1825 9.49869C99.4754 9.83114 99.6218 10.3219 99.6218 10.971Z" fill="url(#paint6_linear_21628_54309)"/>
<path d="M123.286 20.41C123.286 21.3757 123.135 22.2662 122.834 23.0815C122.534 23.8968 122.098 24.5974 121.528 25.1832C120.958 25.7688 120.278 26.2201 119.486 26.5366C118.695 26.8454 117.804 26.9997 116.815 26.9997C115.833 26.9997 114.95 26.8415 114.167 26.5248C113.383 26.2082 112.702 25.757 112.125 25.1712C111.555 24.5775 111.119 23.881 110.818 23.0815C110.526 22.2741 110.379 21.3836 110.379 20.41C110.379 19.4285 110.53 18.5301 110.83 17.7147C111.131 16.8994 111.563 16.2029 112.125 15.625C112.687 15.0471 113.367 14.6039 114.167 14.2952C114.966 13.9786 115.849 13.8203 116.815 13.8203C117.796 13.8203 118.687 13.9786 119.486 14.2952C120.285 14.6118 120.97 15.063 121.54 15.6488C122.11 16.2346 122.542 16.9311 122.834 17.7385C123.135 18.5459 123.286 19.4364 123.286 20.41ZM120.032 20.41C120.032 19.0881 119.739 18.0591 119.154 17.3229C118.576 16.5868 117.796 16.2187 116.815 16.2187C116.181 16.2187 115.623 16.3849 115.14 16.7174C114.658 17.042 114.286 17.5248 114.024 18.1659C113.763 18.8071 113.633 19.5551 113.633 20.41C113.633 21.257 113.759 21.997 114.012 22.6303C114.274 23.2636 114.642 23.7504 115.117 24.0908C115.6 24.4233 116.166 24.5895 116.815 24.5895C117.796 24.5895 118.576 24.2214 119.154 23.4853C119.739 22.7412 120.032 21.7161 120.032 20.41Z" fill="url(#paint7_linear_21628_54309)"/>
<path d="M144.564 21.2059C144.564 21.7598 144.425 22.3615 144.148 23.0106C143.879 23.6517 143.452 24.285 142.866 24.9103C142.28 25.5277 141.532 26.0303 140.622 26.4182C139.712 26.806 138.651 27 137.44 27C136.522 27 135.687 26.9129 134.935 26.7388C134.183 26.5647 133.498 26.2956 132.881 25.9314C132.271 25.5594 131.709 25.0726 131.195 24.4709C130.735 23.9247 130.344 23.3153 130.019 22.6424C129.695 21.9617 129.449 21.2374 129.283 20.4696C129.125 19.7018 129.045 18.8866 129.045 18.0238C129.045 16.6226 129.247 15.3681 129.651 14.2599C130.063 13.1517 130.648 12.2058 131.408 11.4222C132.168 10.6306 133.059 10.029 134.08 9.61741C135.101 9.2058 136.189 9 137.345 9C138.754 9 140.009 9.281 141.109 9.84301C142.209 10.405 143.052 11.1016 143.638 11.9327C144.223 12.7559 144.517 13.5356 144.517 14.2718C144.517 14.6755 144.374 15.0317 144.089 15.3403C143.804 15.6491 143.46 15.8034 143.056 15.8034C142.605 15.8034 142.264 15.6966 142.035 15.4829C141.813 15.2692 141.564 14.9011 141.287 14.3786C140.828 13.5158 140.286 12.8707 139.66 12.4433C139.043 12.0158 138.279 11.8021 137.369 11.8021C135.92 11.8021 134.765 12.3522 133.902 13.4525C133.047 14.5528 132.619 16.116 132.619 18.1424C132.619 19.496 132.809 20.624 133.189 21.5264C133.569 22.4208 134.107 23.0897 134.804 23.5329C135.501 23.9763 136.316 24.1979 137.25 24.1979C138.263 24.1979 139.118 23.9485 139.815 23.4498C140.519 22.9432 141.049 22.2032 141.406 21.2295C141.556 20.7704 141.742 20.3985 141.964 20.1135C142.185 19.8206 142.542 19.6741 143.032 19.6741C143.452 19.6741 143.812 19.8206 144.112 20.1135C144.413 20.4064 144.564 20.7704 144.564 21.2059Z" fill="url(#paint8_linear_21628_54309)"/>
<path d="M155.702 25.1715C154.918 25.7811 154.158 26.2402 153.422 26.5489C152.693 26.8497 151.874 27 150.964 27C150.133 27 149.4 26.8378 148.768 26.5132C148.142 26.1808 147.659 25.7336 147.319 25.1715C146.978 24.6095 146.808 24.0001 146.808 23.343C146.808 22.4566 147.089 21.7006 147.651 21.0753C148.214 20.4499 148.985 20.0304 149.966 19.8166C150.172 19.7692 150.683 19.6624 151.498 19.4961C152.313 19.3299 153.01 19.1794 153.588 19.0449C154.174 18.9024 154.807 18.7323 155.487 18.5343C155.448 17.6795 155.274 17.0541 154.966 16.6584C154.665 16.2546 154.035 16.0529 153.078 16.0529C152.254 16.0529 151.632 16.1676 151.213 16.3972C150.801 16.6267 150.446 16.971 150.145 17.4301C149.852 17.8892 149.642 18.194 149.515 18.3444C149.397 18.4869 149.135 18.558 148.732 18.558C148.368 18.558 148.051 18.4433 147.782 18.2137C147.521 17.9763 147.39 17.6755 147.39 17.3114C147.39 16.7415 147.591 16.1874 147.996 15.6491C148.399 15.1108 149.029 14.6676 149.884 14.3193C150.738 13.971 151.803 13.7969 153.078 13.7969C154.502 13.7969 155.622 13.9671 156.437 14.3074C157.252 14.64 157.827 15.1703 158.16 15.8985C158.499 16.6267 158.669 17.5924 158.669 18.7955C158.669 19.5554 158.665 20.2005 158.658 20.7309C158.658 21.2612 158.654 21.851 158.646 22.5C158.646 23.1096 158.744 23.7468 158.943 24.4116C159.149 25.0687 159.251 25.4921 159.251 25.6822C159.251 26.0145 159.093 26.3194 158.776 26.5964C158.468 26.8656 158.115 27 157.72 27C157.388 27 157.059 26.8457 156.734 26.5369C156.41 26.2204 156.066 25.7652 155.702 25.1715ZM155.487 20.4816C155.013 20.6557 154.321 20.8417 153.409 21.0396C152.508 21.2295 151.883 21.3721 151.534 21.4671C151.186 21.5541 150.853 21.7322 150.536 22.0014C150.219 22.2626 150.061 22.6307 150.061 23.1056C150.061 23.5963 150.247 24.0159 150.62 24.3641C150.991 24.7045 151.478 24.8748 152.08 24.8748C152.721 24.8748 153.311 24.7362 153.85 24.4592C154.395 24.1742 154.794 23.81 155.048 23.3668C155.342 22.876 155.487 22.0686 155.487 20.9447V20.4816Z" fill="url(#paint9_linear_21628_54309)"/>
<path d="M164.915 15.6132V16.005C165.485 15.2531 166.107 14.7028 166.779 14.3546C167.461 13.9984 168.24 13.8203 169.118 13.8203C169.973 13.8203 170.737 14.0063 171.409 14.3784C172.083 14.7504 172.585 15.2768 172.918 15.9575C173.131 16.3532 173.269 16.7808 173.333 17.2398C173.396 17.6989 173.428 18.2847 173.428 18.9971V25.0288C173.428 25.6778 173.278 26.1686 172.977 26.5011C172.683 26.8335 172.3 26.9997 171.825 26.9997C171.343 26.9997 170.951 26.8295 170.65 26.4891C170.349 26.1488 170.198 25.662 170.198 25.0288V19.6263C170.198 18.5577 170.048 17.7425 169.747 17.1805C169.455 16.6106 168.865 16.3256 167.979 16.3256C167.4 16.3256 166.874 16.4997 166.399 16.848C165.924 17.1884 165.576 17.6593 165.354 18.2609C165.195 18.7438 165.116 19.6462 165.116 20.968V25.0288C165.116 25.6857 164.962 26.1805 164.654 26.5129C164.353 26.8374 163.961 26.9997 163.479 26.9997C163.011 26.9997 162.628 26.8295 162.327 26.4891C162.026 26.1488 161.875 25.662 161.875 25.0288V15.6607C161.875 15.0433 162.01 14.5842 162.279 14.2834C162.549 13.9747 162.916 13.8203 163.384 13.8203C163.668 13.8203 163.925 13.8876 164.156 14.0222C164.385 14.1567 164.566 14.3586 164.701 14.6277C164.844 14.8968 164.915 15.2253 164.915 15.6132Z" fill="url(#paint10_linear_21628_54309)"/>
<path d="M178.629 15.8387L181.253 23.2003L184.078 15.5182C184.3 14.9008 184.517 14.4654 184.732 14.2121C184.945 13.9509 185.27 13.8203 185.705 13.8203C186.117 13.8203 186.466 13.9588 186.751 14.2359C187.043 14.5129 187.19 14.8335 187.19 15.1976C187.19 15.34 187.161 15.5064 187.106 15.6963C187.059 15.8862 187 16.0644 186.928 16.2305C186.864 16.3969 186.79 16.5868 186.703 16.8005L183.591 24.5182C183.505 24.7398 183.39 25.0209 183.247 25.3611C183.113 25.7016 182.958 25.9945 182.785 26.2398C182.618 26.4773 182.408 26.6633 182.156 26.7978C181.909 26.9325 181.608 26.9997 181.253 26.9997C180.793 26.9997 180.425 26.8968 180.148 26.691C179.879 26.4773 179.677 26.2478 179.544 26.0024C179.417 25.7491 179.198 25.2543 178.89 24.5182L175.802 16.8836C175.732 16.6936 175.657 16.5037 175.578 16.3138C175.506 16.1237 175.442 15.9299 175.388 15.7319C175.34 15.534 175.316 15.3638 175.316 15.2214C175.316 14.9998 175.383 14.782 175.517 14.5683C175.653 14.3467 175.838 14.1686 176.076 14.034C176.314 13.8915 176.57 13.8203 176.848 13.8203C177.386 13.8203 177.754 13.9747 177.952 14.2834C178.158 14.5921 178.383 15.1105 178.629 15.8387Z" fill="url(#paint11_linear_21628_54309)"/>
<path d="M197.376 25.1715C196.593 25.7811 195.833 26.2402 195.097 26.5489C194.368 26.8497 193.549 27 192.639 27C191.808 27 191.076 26.8378 190.443 26.5132C189.818 26.1808 189.334 25.7336 188.994 25.1715C188.654 24.6095 188.483 24.0001 188.483 23.343C188.483 22.4566 188.764 21.7006 189.327 21.0753C189.888 20.4499 190.66 20.0304 191.642 19.8166C191.848 19.7692 192.358 19.6624 193.173 19.4961C193.988 19.3299 194.685 19.1794 195.262 19.0449C195.849 18.9024 196.482 18.7323 197.163 18.5343C197.123 17.6795 196.949 17.0541 196.641 16.6584C196.34 16.2546 195.71 16.0529 194.753 16.0529C193.929 16.0529 193.308 16.1676 192.888 16.3972C192.477 16.6267 192.12 16.971 191.819 17.4301C191.527 17.8892 191.317 18.194 191.19 18.3444C191.072 18.4869 190.81 18.558 190.407 18.558C190.042 18.558 189.726 18.4433 189.456 18.2137C189.196 17.9763 189.065 17.6755 189.065 17.3114C189.065 16.7415 189.268 16.1874 189.671 15.6491C190.074 15.1108 190.703 14.6676 191.559 14.3193C192.414 13.971 193.478 13.7969 194.753 13.7969C196.177 13.7969 197.297 13.9671 198.112 14.3074C198.929 14.64 199.502 15.1703 199.834 15.8985C200.174 16.6267 200.344 17.5924 200.344 18.7955C200.344 19.5554 200.341 20.2005 200.333 20.7309C200.333 21.2612 200.328 21.851 200.321 22.5C200.321 23.1096 200.421 23.7468 200.618 24.4116C200.824 25.0687 200.926 25.4921 200.926 25.6822C200.926 26.0145 200.769 26.3194 200.452 26.5964C200.143 26.8656 199.791 27 199.395 27C199.063 27 198.734 26.8457 198.409 26.5369C198.085 26.2204 197.741 25.7652 197.376 25.1715ZM197.163 20.4816C196.688 20.6557 195.995 20.8417 195.085 21.0396C194.182 21.2295 193.557 21.3721 193.209 21.4671C192.861 21.5541 192.528 21.7322 192.211 22.0014C191.894 22.2626 191.737 22.6307 191.737 23.1056C191.737 23.5963 191.923 24.0159 192.295 24.3641C192.666 24.7045 193.154 24.8748 193.755 24.8748C194.397 24.8748 194.986 24.7362 195.525 24.4592C196.07 24.1742 196.471 23.81 196.724 23.3668C197.016 22.876 197.163 22.0686 197.163 20.9447V20.4816Z" fill="url(#paint12_linear_21628_54309)"/>
<path d="M214.082 22.7609C214.082 23.6555 213.865 24.4233 213.43 25.0644C212.995 25.6977 212.35 26.1805 211.494 26.5129C210.648 26.8374 209.614 26.9997 208.395 26.9997C207.232 26.9997 206.234 26.8216 205.403 26.4655C204.572 26.1092 203.959 25.666 203.563 25.1356C203.167 24.5974 202.969 24.0591 202.969 23.5208C202.969 23.1646 203.096 22.8599 203.35 22.6066C203.602 22.3533 203.923 22.2267 204.31 22.2267C204.651 22.2267 204.912 22.3098 205.095 22.476C205.276 22.6421 205.451 22.8757 205.616 23.1765C205.949 23.7544 206.345 24.1857 206.804 24.4707C207.271 24.7556 207.904 24.8982 208.704 24.8982C209.353 24.8982 209.883 24.7556 210.295 24.4707C210.714 24.1778 210.924 23.8454 210.924 23.4733C210.924 22.9034 210.707 22.4879 210.272 22.2267C209.844 21.9655 209.136 21.7161 208.146 21.4786C207.03 21.2016 206.119 20.9127 205.415 20.6119C204.719 20.3031 204.16 19.8995 203.741 19.4008C203.321 18.902 203.112 18.2886 203.112 17.5604C203.112 16.9114 203.305 16.2979 203.694 15.7201C204.081 15.1422 204.651 14.6831 205.403 14.3427C206.163 13.9945 207.078 13.8203 208.146 13.8203C208.984 13.8203 209.737 13.9074 210.401 14.0815C211.075 14.2557 211.633 14.4891 212.076 14.782C212.527 15.0749 212.868 15.3995 213.097 15.7556C213.335 16.1119 213.453 16.4601 213.453 16.8005C213.453 17.1726 213.326 17.4773 213.074 17.7147C212.828 17.9522 212.475 18.071 212.017 18.071C211.684 18.071 211.399 17.976 211.162 17.786C210.933 17.5961 210.666 17.3111 210.367 16.9311C210.121 16.6144 209.833 16.3611 209.5 16.1712C209.167 15.9813 208.715 15.8862 208.146 15.8862C207.56 15.8862 207.073 16.013 206.685 16.2663C206.297 16.5116 206.103 16.8204 206.103 17.1923C206.103 17.5327 206.245 17.8137 206.531 18.0353C206.816 18.2491 207.2 18.4271 207.683 18.5697C208.165 18.7121 208.83 18.8863 209.677 19.0921C210.682 19.3375 211.501 19.6304 212.135 19.9707C212.776 20.3111 213.26 20.7147 213.584 21.1818C213.916 21.6409 214.082 22.1672 214.082 22.7609Z" fill="url(#paint13_linear_21628_54309)"/>
</g>
<defs>
<linearGradient id="paint0_linear_21628_54309" x1="-0.0536233" y1="13.9708" x2="58.1383" y2="13.9708" gradientUnits="userSpaceOnUse">
<stop stop-color="#FF98FF"/>
<stop offset="0.34" stop-color="#0151FF"/>
<stop offset="1" stop-color="#E367FF"/>
</linearGradient>
<linearGradient id="paint1_linear_21628_54309" x1="-0.0537109" y1="12.7035" x2="58.1381" y2="12.7035" gradientUnits="userSpaceOnUse">
<stop stop-color="#FFC10C"/>
<stop offset="0.58" stop-color="#FA3EB3"/>
<stop offset="1" stop-color="#FF98FF"/>
</linearGradient>
<linearGradient id="paint2_linear_21628_54309" x1="-0.0528908" y1="22.772" x2="58.1391" y2="22.772" gradientUnits="userSpaceOnUse">
<stop stop-color="#FF98FF"/>
<stop offset="0.34" stop-color="#0151FF"/>
<stop offset="1" stop-color="#E367FF"/>
</linearGradient>
<linearGradient id="paint3_linear_21628_54309" x1="58.8435" y1="18.7041" x2="16.2916" y2="28.2254" gradientUnits="userSpaceOnUse">
<stop stop-color="#FFC10C"/>
<stop offset="0.58" stop-color="#FA3EB3"/>
<stop offset="1" stop-color="#FF98FF"/>
</linearGradient>
<linearGradient id="paint4_linear_21628_54309" x1="123.39" y1="13.5756" x2="67.4656" y2="20.8157" gradientUnits="userSpaceOnUse">
<stop stop-color="#14B7F9"/>
<stop offset="1" stop-color="#A463FF"/>
</linearGradient>
<linearGradient id="paint5_linear_21628_54309" x1="123.391" y1="13.5756" x2="67.4658" y2="20.8157" gradientUnits="userSpaceOnUse">
<stop stop-color="#14B7F9"/>
<stop offset="1" stop-color="#A463FF"/>
</linearGradient>
<linearGradient id="paint6_linear_21628_54309" x1="123.39" y1="13.5756" x2="67.4656" y2="20.8156" gradientUnits="userSpaceOnUse">
<stop stop-color="#14B7F9"/>
<stop offset="1" stop-color="#A463FF"/>
</linearGradient>
<linearGradient id="paint7_linear_21628_54309" x1="123.391" y1="13.5753" x2="67.4657" y2="20.8154" gradientUnits="userSpaceOnUse">
<stop stop-color="#14B7F9"/>
<stop offset="1" stop-color="#A463FF"/>
</linearGradient>
<linearGradient id="paint8_linear_21628_54309" x1="213.157" y1="17.7162" x2="133.827" y2="37.1919" gradientUnits="userSpaceOnUse">
<stop stop-color="#FFC10C"/>
<stop offset="1" stop-color="#14B7F9"/>
</linearGradient>
<linearGradient id="paint9_linear_21628_54309" x1="213.158" y1="17.7162" x2="133.827" y2="37.1919" gradientUnits="userSpaceOnUse">
<stop stop-color="#FFC10C"/>
<stop offset="1" stop-color="#14B7F9"/>
</linearGradient>
<linearGradient id="paint10_linear_21628_54309" x1="213.157" y1="17.7159" x2="133.827" y2="37.1916" gradientUnits="userSpaceOnUse">
<stop stop-color="#FFC10C"/>
<stop offset="1" stop-color="#14B7F9"/>
</linearGradient>
<linearGradient id="paint11_linear_21628_54309" x1="213.157" y1="17.7159" x2="133.827" y2="37.1916" gradientUnits="userSpaceOnUse">
<stop stop-color="#FFC10C"/>
<stop offset="1" stop-color="#14B7F9"/>
</linearGradient>
<linearGradient id="paint12_linear_21628_54309" x1="213.157" y1="17.7162" x2="133.827" y2="37.1919" gradientUnits="userSpaceOnUse">
<stop stop-color="#FFC10C"/>
<stop offset="1" stop-color="#14B7F9"/>
</linearGradient>
<linearGradient id="paint13_linear_21628_54309" x1="213.157" y1="17.7159" x2="133.827" y2="37.1916" gradientUnits="userSpaceOnUse">
<stop stop-color="#FFC10C"/>
<stop offset="1" stop-color="#14B7F9"/>
</linearGradient>
<clipPath id="clip0_21628_54309">
<rect width="214.128" height="36" fill="white"/>
</clipPath>
</defs>
</svg>
