<svg width="64" height="64" viewBox="0 0 64 64" fill="none" xmlns="http://www.w3.org/2000/svg">
<rect x="0.5" y="0.5" width="63" height="63" rx="11.5" fill="white"/>
<rect x="0.5" y="0.5" width="63" height="63" rx="11.5" stroke="#E1E3E7"/>
<path d="M36.3557 16.4063C34.2864 14.5006 32.4364 12.8139 29.3906 13.633C26.2142 14.3299 23.3239 19.7776 19.1569 25.0104C15.0276 30.0912 9.62176 34.9571 2.28921 30.9991C2.21653 31.0246 2.14318 31.0501 2.06982 31.075C2.79258 31.577 3.51534 32.0198 4.23742 32.4089C7.5578 34.4074 8.8768 37.9998 10.685 40.8194C12.4724 43.6948 14.749 45.7968 19.4974 46.1079C20.9376 46.1684 22.3562 46.1187 23.7451 45.9372C26.1718 47.7832 28.9054 49.8321 32.141 50.3723C39.4533 51.8527 42.337 45.1262 45.2078 38.8962C48.1042 32.7785 50.9179 26.3785 58.6461 30.6913C59.7403 31.3808 60.8346 32.1939 61.9308 33.1447C61.1657 32.3215 60.4039 31.5602 59.6448 30.8586C56.2107 28.2312 53.5983 26.2361 51.4784 24.4257C49.3586 22.6363 47.7321 21.0316 46.2549 19.6742C43.2993 16.9365 40.9433 15.3137 36.3564 16.4056L36.3557 16.4063Z" fill="white"/>
<path style="mix-blend-mode:multiply" d="M59.6445 30.8591C56.1801 28.2122 53.5522 26.2016 51.4229 24.3785C49.293 22.5769 47.6624 20.9635 46.1772 19.6041C43.2048 16.8644 40.8225 15.2591 36.1125 16.4713C31.0599 17.7743 27.685 21.6469 23.16 26.043C20.9009 28.1987 18.3592 30.4391 15.2198 31.8752C12.0825 33.2709 8.34822 33.8609 3.75057 31.7858C3.19202 31.5815 2.63144 31.345 2.06885 31.0748C6.56084 33.4274 10.4855 33.9482 13.993 34.0289C17.4951 34.0699 20.5806 33.672 23.2583 33.2702C21.1492 37.0582 21.2421 40.2091 26.1668 39.23C30.6056 38.3591 34.9482 34.5503 40.3319 31.0782C43.0318 29.3855 46.0009 27.8117 49.4889 27.5254C52.9835 27.2929 56.9964 28.3479 61.9292 33.1452C61.164 32.322 60.4022 31.5607 59.6431 30.8591H59.6445Z" fill="url(#paint0_linear_21563_23848)"/>
<path style="mix-blend-mode:multiply" d="M55.4749 28.2705C46.6673 25.0927 42.071 22.0493 38.8138 18.8366C35.5278 15.8173 33.5816 12.6295 29.3917 13.6327C26.2154 14.3296 23.325 19.7773 19.1581 25.0101C15.0281 30.0909 9.62225 34.9568 2.2897 30.9988C2.21702 31.0243 2.14366 31.0498 2.07031 31.0747C6.56231 33.4273 10.487 33.9481 13.9945 34.0287C17.4965 34.0697 20.5821 33.6719 23.2598 33.2701C21.1507 37.058 21.2436 40.209 26.1683 39.2299C30.6071 38.359 34.9497 34.5502 40.3334 31.0781C43.0333 29.3853 46.0024 27.8116 49.4903 27.5253C52.985 27.2928 56.9978 28.3478 61.9306 33.1451C59.7637 31.0317 57.6116 29.4378 55.4749 28.2705Z" fill="url(#paint1_linear_21563_23848)"/>
<path style="mix-blend-mode:multiply" d="M57.5054 29.8047C54.3176 28.1126 51.4576 28.4009 48.6136 29.9209C45.7744 31.4194 42.952 34.1504 39.954 36.8484C36.9607 39.5585 33.7917 42.237 30.3798 43.9049C26.9733 45.6171 23.3245 46.3186 19.4981 46.1083C14.5068 45.8147 12.2483 43.4473 10.4138 40.3743C8.55243 37.3517 7.11297 33.6229 3.1479 31.781C2.78854 31.5599 2.42918 31.3254 2.06982 31.0754C6.56182 33.428 10.4865 33.9488 13.994 34.0294C17.496 34.0704 20.5816 33.6726 23.2593 33.2708C21.1502 37.0587 21.2431 40.2096 26.1678 39.2306C30.6066 38.3597 34.9492 34.5509 40.3329 31.0787C43.0328 29.386 46.0019 27.8122 49.4898 27.526C52.9845 27.2935 56.9974 28.3485 61.9301 33.1458C60.451 31.7958 58.9759 30.693 57.5041 29.8047H57.5054Z" fill="url(#paint2_linear_21563_23848)"/>
<path style="mix-blend-mode:multiply" d="M58.6466 30.692C50.9183 26.3792 48.1047 32.7792 45.2103 38.915C42.3381 45.1275 39.4545 51.8534 32.1421 50.373C29.3184 49.8025 26.8917 48.3033 24.71 46.6959C22.5249 45.0617 20.5847 43.3192 18.6702 41.6466C14.7785 38.3573 11.1586 35.1123 4.52257 32.5601C3.7056 32.1361 2.88796 31.6435 2.07031 31.0764C6.56231 33.429 10.487 33.9498 13.9945 34.0304C17.4965 34.0714 20.5821 33.6736 23.2598 33.2717C21.1507 37.0597 21.2436 40.2106 26.1683 39.2315C30.6071 38.3607 34.9497 34.5519 40.3334 31.0797C43.0333 29.387 46.0024 27.8132 49.4903 27.527C52.985 27.2944 56.9978 28.3495 61.9306 33.1467C60.8351 32.1959 59.7402 31.3828 58.6459 30.6933L58.6466 30.692Z" fill="url(#paint3_linear_21563_23848)"/>
<defs>
<linearGradient id="paint0_linear_21563_23848" x1="2.07019" y1="27.7364" x2="61.9312" y2="27.7364" gradientUnits="userSpaceOnUse">
<stop stop-color="#FF98FF"/>
<stop offset="0.34" stop-color="#0151FF"/>
<stop offset="1" stop-color="#E367FF"/>
</linearGradient>
<linearGradient id="paint1_linear_21563_23848" x1="2.07031" y1="26.4279" x2="61.9313" y2="26.4279" gradientUnits="userSpaceOnUse">
<stop stop-color="#FFC10C"/>
<stop offset="0.58" stop-color="#FA3EB3"/>
<stop offset="1" stop-color="#FF98FF"/>
</linearGradient>
<linearGradient id="paint2_linear_21563_23848" x1="2.07117" y1="36.8207" x2="61.9322" y2="36.8207" gradientUnits="userSpaceOnUse">
<stop stop-color="#FF98FF"/>
<stop offset="0.34" stop-color="#0151FF"/>
<stop offset="1" stop-color="#E367FF"/>
</linearGradient>
<linearGradient id="paint3_linear_21563_23848" x1="62.6569" y1="32.6228" x2="18.8703" y2="42.387" gradientUnits="userSpaceOnUse">
<stop stop-color="#FFC10C"/>
<stop offset="0.58" stop-color="#FA3EB3"/>
<stop offset="1" stop-color="#FF98FF"/>
</linearGradient>
</defs>
</svg>
