<svg width="20" height="20" viewBox="0 0 20 20" fill="none" xmlns="http://www.w3.org/2000/svg">
<g clip-path="url(#clip0_20323_30370)">
<path d="M3.875 2C3.875 1.10254 4.60254 0.375 5.5 0.375H13.5C13.5606 0.375 13.6187 0.39908 13.6616 0.441943L19.058 5.8384C19.1009 5.88125 19.125 5.9394 19.125 6V18C19.125 18.8974 18.3974 19.625 17.5 19.625H5.5C4.60253 19.625 3.875 18.8974 3.875 18V2Z" fill="white" stroke="#D0D5DD" strokeWidth="1.5"/>
<path d="M13.5 0.25V4C13.5 5.10455 14.3954 6 15.5 6H19.25" stroke="#D0D5DD" strokeWidth="1.5"/>
<path d="M14 9H1.5C0.947715 9 0.5 9.44772 0.5 10V16C0.5 16.5523 0.947715 17 1.5 17H14C14.5523 17 15 16.5523 15 16V10C15 9.44772 14.5523 9 14 9Z" fill="#DD2590"/>
<path d="M2.51196 11.3642H3.46012L4.46154 13.8074H4.50415L5.50556 11.3642H6.45371V15.0006H5.70796V12.6337H5.67781L4.73675 14.9828H4.22894L3.28789 12.6249H3.2577V15.0006H2.51196V11.3642ZM7.08716 15.0006V11.3642H8.52181C8.79761 11.3642 9.03261 11.4169 9.22671 11.5222C9.42086 11.6264 9.56881 11.7714 9.67061 11.9573C9.77361 12.1419 9.82506 12.355 9.82506 12.5965C9.82506 12.8379 9.77301 13.051 9.66881 13.2357C9.56466 13.4203 9.41376 13.5641 9.21606 13.6671C9.01956 13.7701 8.78166 13.8216 8.50231 13.8216H7.58786V13.2055H8.37801C8.52596 13.2055 8.64786 13.18 8.74376 13.1291C8.84081 13.077 8.91301 13.0054 8.96036 12.9143C9.00891 12.822 9.03316 12.716 9.03316 12.5965C9.03316 12.4757 9.00891 12.3704 8.96036 12.2804C8.91301 12.1893 8.84081 12.1188 8.74376 12.0691C8.64671 12.0182 8.52361 11.9928 8.37446 11.9928H7.85596V15.0006H7.08716ZM11.6473 15.0503C11.3821 15.0503 11.146 15.0047 10.9388 14.9136C10.7329 14.8212 10.5701 14.6946 10.4505 14.5336C10.3322 14.3714 10.2712 14.1844 10.2677 13.9725H11.0418C11.0465 14.0613 11.0755 14.1394 11.1288 14.2069C11.1833 14.2732 11.2555 14.3247 11.3454 14.3614C11.4354 14.3981 11.5366 14.4164 11.6491 14.4164C11.7662 14.4164 11.8698 14.3957 11.9598 14.3543C12.0497 14.3128 12.1202 14.2554 12.1711 14.182C12.222 14.1086 12.2474 14.024 12.2474 13.9281C12.2474 13.8311 12.2202 13.7452 12.1657 13.6707C12.1125 13.5949 12.0355 13.5357 11.9349 13.4931C11.8355 13.4505 11.7171 13.4292 11.5798 13.4292H11.2407V12.8646H11.5798C11.6958 12.8646 11.7982 12.8444 11.887 12.8042C11.9769 12.764 12.0468 12.7083 12.0965 12.6373C12.1462 12.5651 12.1711 12.481 12.1711 12.3852C12.1711 12.294 12.1492 12.2141 12.1054 12.1455C12.0628 12.0756 12.0024 12.0212 11.9243 11.9821C11.8473 11.943 11.7574 11.9235 11.6544 11.9235C11.5502 11.9235 11.4549 11.9425 11.3685 11.9803C11.2821 12.017 11.2129 12.0697 11.1608 12.1384C11.1087 12.207 11.0809 12.2875 11.0773 12.3798H10.3405C10.344 12.1703 10.4038 11.9857 10.5198 11.8259C10.6358 11.6661 10.792 11.5412 10.9885 11.4512C11.1862 11.3601 11.4093 11.3145 11.6579 11.3145C11.9089 11.3145 12.1285 11.3601 12.3167 11.4512C12.5049 11.5424 12.6511 11.6655 12.7552 11.8205C12.8606 11.9744 12.9127 12.1472 12.9115 12.339C12.9127 12.5426 12.8493 12.7125 12.7215 12.8486C12.5948 12.9847 12.4297 13.0711 12.2261 13.1078V13.1362C12.4936 13.1706 12.6972 13.2635 12.8369 13.415C12.9778 13.5653 13.0476 13.7535 13.0464 13.9796C13.0476 14.1868 12.9878 14.3708 12.8671 14.5318C12.7475 14.6928 12.5824 14.8195 12.3717 14.9118C12.161 15.0041 11.9195 15.0503 11.6473 15.0503Z" fill="white"/>
</g>
<defs>
<clipPath id="clip0_20323_30370">
<rect width="20" height="20" fill="white"/>
</clipPath>
</defs>
</svg>
