<svg width="20" height="20" viewBox="0 0 20 20" fill="none" xmlns="http://www.w3.org/2000/svg">
<g clip-path="url(#clip0_20323_30375)">
<path d="M3.875 2C3.875 1.10254 4.60254 0.375 5.5 0.375H13.5C13.5606 0.375 13.6187 0.39908 13.6616 0.441943L19.058 5.8384C19.1009 5.88125 19.125 5.9394 19.125 6V18C19.125 18.8974 18.3974 19.625 17.5 19.625H5.5C4.60253 19.625 3.875 18.8974 3.875 18V2Z" fill="white" stroke="#D0D5DD" strokeWidth="1.5"/>
<path d="M13.5 0.25V4C13.5 5.10455 14.3954 6 15.5 6H19.25" stroke="#D0D5DD" strokeWidth="1.5"/>
<path d="M14 9H1.5C0.947715 9 0.5 9.44772 0.5 10V16C0.5 16.5523 0.947715 17 1.5 17H14C14.5523 17 15 16.5523 15 16V10C15 9.44772 14.5523 9 14 9Z" fill="#155EEF"/>
<path d="M2.46558 11.3633H3.41373L4.41515 13.8064H4.45777L5.45916 11.3633H6.40736V14.9996H5.66161V12.6328H5.63141L4.69036 14.9819H4.18255L3.2415 12.6239H3.21132V14.9996H2.46558V11.3633ZM7.04076 14.9996V11.3633H8.47541C8.75121 11.3633 8.98621 11.4159 9.18031 11.5213C9.37446 11.6255 9.52241 11.7705 9.62421 11.9563C9.72721 12.141 9.77871 12.354 9.77871 12.5955C9.77871 12.837 9.72661 13.0501 9.62246 13.2347C9.51826 13.4194 9.36736 13.5632 9.16966 13.6662C8.97316 13.7692 8.73526 13.8206 8.45591 13.8206H7.54146V13.2045H8.33161C8.47956 13.2045 8.60151 13.1791 8.69736 13.1282C8.79446 13.0761 8.86666 13.0045 8.91401 12.9133C8.96251 12.821 8.98681 12.7151 8.98681 12.5955C8.98681 12.4748 8.96251 12.3694 8.91401 12.2795C8.86666 12.1883 8.79446 12.1179 8.69736 12.0682C8.60031 12.0173 8.47721 11.9918 8.32806 11.9918H7.80961V14.9996H7.04076ZM10.2017 14.3604V13.755L11.7199 11.3633H12.2419V12.2013H11.9329L10.9759 13.7159V13.7443H13.1332V14.3604H10.2017ZM11.9471 14.9996V14.1758L11.9613 13.9077V11.3633H12.6822V14.9996H11.9471Z" fill="white"/>
</g>
<defs>
<clipPath id="clip0_20323_30375">
<rect width="20" height="20" fill="white"/>
</clipPath>
</defs>
</svg>
