<svg width="20" height="20" viewBox="0 0 20 20" fill="none" xmlns="http://www.w3.org/2000/svg">
<g clip-path="url(#clip0_20323_30380)">
<path d="M3.875 2C3.875 1.10254 4.60254 0.375 5.5 0.375H13.5C13.5606 0.375 13.6187 0.39908 13.6616 0.441943L19.058 5.8384C19.1009 5.88125 19.125 5.9394 19.125 6V18C19.125 18.8974 18.3974 19.625 17.5 19.625H5.5C4.60253 19.625 3.875 18.8974 3.875 18V2Z" fill="white" stroke="#D0D5DD" strokeWidth="1.5"/>
<path d="M13.5 0.25V4C13.5 5.10455 14.3954 6 15.5 6H19.25" stroke="#D0D5DD" strokeWidth="1.5"/>
<path d="M14.5 9H1.5C0.947715 9 0.5 9.44772 0.5 10V16C0.5 16.5523 0.947715 17 1.5 17H14.5C15.0523 17 15.5 16.5523 15.5 16V10C15.5 9.44772 15.0523 9 14.5 9Z" fill="#DD2590"/>
<path d="M3.21407 14.9996L2.17358 11.3633H3.01343L3.61534 13.8899H3.64553L4.30959 11.3633H5.02869L5.69099 13.8952H5.72294L6.32484 11.3633H7.16469L6.12424 14.9996H5.37494L4.68246 12.6221H4.65405L3.96336 14.9996H3.21407ZM7.83674 14.9996H7.01289L8.26824 11.3633H9.25899L10.5125 14.9996H9.68869L8.77779 12.1942H8.74939L7.83674 14.9996ZM7.78529 13.5703H9.73129V14.1704H7.78529V13.5703ZM11.1531 11.3633L12.032 14.126H12.0657L12.9464 11.3633H13.7987L12.5451 14.9996H11.5543L10.299 11.3633H11.1531Z" fill="white"/>
</g>
<defs>
<clipPath id="clip0_20323_30380">
<rect width="20" height="20" fill="white"/>
</clipPath>
</defs>
</svg>
