<svg width="44" height="44" viewBox="0 0 44 44" fill="none" xmlns="http://www.w3.org/2000/svg">
<g clip-path="url(#clip0_21628_11347)">
<path d="M0 22C0 9.84977 9.84977 0 22 0C34.1502 0 44 9.84977 44 22C44 34.1502 34.1502 44 22 44C9.84977 44 0 34.1502 0 22Z" fill="#FF0000"/>
<path d="M33.2428 16.5674C32.973 15.5306 32.1778 14.7142 31.1681 14.4371C29.3382 13.9336 21.9999 13.9336 21.9999 13.9336C21.9999 13.9336 14.6617 13.9336 12.8317 14.4371C11.8219 14.7142 11.0267 15.5306 10.7568 16.5674C10.2666 18.4464 10.2666 22.3669 10.2666 22.3669C10.2666 22.3669 10.2666 26.2873 10.7568 28.1665C11.0267 29.2032 11.8219 30.0196 12.8317 30.2968C14.6617 30.8003 21.9999 30.8003 21.9999 30.8003C21.9999 30.8003 29.3382 30.8003 31.1681 30.2968C32.1778 30.0196 32.973 29.2032 33.2428 28.1665C33.7333 26.2873 33.7333 22.3669 33.7333 22.3669C33.7333 22.3669 33.7333 18.4464 33.2428 16.5674Z" fill="white"/>
<path d="M19.8 26.3997V19.0664L25.6667 22.7332L19.8 26.3997Z" fill="#FF0000"/>
</g>
<defs>
<clipPath id="clip0_21628_11347">
<rect width="44" height="44" fill="white"/>
</clipPath>
</defs>
</svg>
